<svg width="161" height="43" viewBox="0 0 161 43" fill="none" xmlns="http://www.w3.org/2000/svg">
<path d="M22.5227 0H19.4432L0 42.2678H3.32104L20.9527 3.38142L38.6448 42.2678H41.9659L22.5227 0Z" fill="white"/>
<path d="M75.3037 38.7052C73.5526 39.4298 71.6204 39.7921 69.6278 39.7921C66.3671 39.7921 63.6499 38.9468 61.3554 37.2561C59.0608 35.5654 57.4909 33.2708 56.7663 30.3725L83.395 25.1796C83.2138 22.402 82.5496 19.9263 81.2212 17.6921C79.8928 15.458 78.1417 13.7069 75.9679 12.4388C73.7942 11.1708 71.3185 10.5066 68.6013 10.5066C65.6425 10.5066 62.9857 11.2312 60.6912 12.5596C58.3362 13.9484 56.5248 15.8203 55.1963 18.2356C53.8679 20.6509 53.2641 23.4285 53.2641 26.508C53.2641 29.6479 53.9283 32.3651 55.3171 34.7804C56.7059 37.1957 58.6381 39.1279 61.1138 40.4563C63.5895 41.8451 66.3671 42.5093 69.5674 42.5093C71.9827 42.5093 74.2168 42.0867 76.3302 41.2413C78.3229 40.396 80.0739 39.1279 81.4627 37.3768L79.7117 35.3842C78.504 36.8938 77.0548 37.9806 75.3037 38.7052ZM62.2007 14.8541C64.0726 13.7673 66.186 13.1634 68.6013 13.1634C70.6543 13.1634 72.5865 13.6465 74.2772 14.5522C75.9679 15.458 77.2964 16.726 78.3832 18.2356C79.4097 19.8055 80.074 21.5566 80.3759 23.4285L56.3436 28.1383C56.2228 27.3533 56.2228 26.7495 56.2228 26.2664C56.2228 23.7908 56.7059 21.4962 57.7928 19.5036C58.8193 17.511 60.2685 15.941 62.2007 14.8541Z" fill="white"/>
<path d="M108.608 12.3785C106.555 13.5861 105.045 15.3372 104.079 17.6317V10.7481H101.181V42.2678H104.2V25.8438C104.2 21.9793 105.166 18.8998 107.159 16.726C109.091 14.5522 111.869 13.405 115.371 13.405L116.096 13.4653V10.5066C113.137 10.5066 110.661 11.1708 108.608 12.3785Z" fill="white"/>
<path d="M157.558 13.9484C155.264 11.6539 152.124 10.5066 148.199 10.5066C145.24 10.5066 142.704 11.1708 140.53 12.3785C138.357 13.6465 136.787 15.3976 135.7 17.5713V10.7481H132.801V42.2678H135.82V25.4815C135.82 21.7378 136.847 18.779 139.021 16.5448C141.134 14.3711 144.032 13.2238 147.776 13.2238C150.976 13.2238 153.452 14.1899 155.264 16.0014C157.075 17.8733 157.981 20.5905 157.981 24.0927V42.2678H161V23.8511C161 19.564 159.853 16.2429 157.558 13.9484Z" fill="white"/>
</svg>
